<svg id="ig" xmlns="http://www.w3.org/2000/svg" width="27.127" height="27.127" viewBox="0 0 27.127 27.127">
  <defs>
    <style>
      .cls-1 {
        fill: #fff;
      }

      .cls-2 {
        fill: #ad0000;
      }
    </style>
  </defs>
  <circle id="Elipse_57" data-name="Elipse 57" class="cls-1" cx="13.563" cy="13.563" r="13.563" transform="translate(0 0)"/>
  <path id="Unión_32" data-name="Unión 32" class="cls-2" d="M8,11.392h-4.6A3.4,3.4,0,0,1,0,8v-4.6A3.4,3.4,0,0,1,3.394,0H8a3.4,3.4,0,0,1,3.394,3.394V8A3.4,3.4,0,0,1,8,11.392ZM5.7,2.75A2.946,2.946,0,1,0,8.642,5.7,2.95,2.95,0,0,0,5.7,2.75Zm2.952-.684a.706.706,0,1,0,.706.706A.707.707,0,0,0,8.648,2.066ZM5.7,7.5A1.8,1.8,0,1,1,7.5,5.7,1.8,1.8,0,0,1,5.7,7.5Z" transform="translate(7.596 7.596)"/>
</svg>
