<svg id="ig" xmlns="http://www.w3.org/2000/svg" width="50" height="50" viewBox="0 0 50 50">
  <defs>
    <style>
      .cls-1 {
        fill: #fff;
      }

      .cls-2 {
        fill: #ad0000;
      }
    </style>
  </defs>
  <circle id="Elipse_57" data-name="Elipse 57" class="cls-1" cx="25" cy="25" r="25" transform="translate(0 0)"/>
  <path id="Unión_32" data-name="Unión 32" class="cls-2" d="M14.742,21H6.255A6.262,6.262,0,0,1,0,14.742V6.255A6.263,6.263,0,0,1,6.255,0h8.486A6.263,6.263,0,0,1,21,6.255v8.486A6.262,6.262,0,0,1,14.742,21ZM10.5,5.068a5.431,5.431,0,1,0,5.43,5.431A5.437,5.437,0,0,0,10.5,5.068Zm5.44-1.26a1.3,1.3,0,1,0,1.3,1.3A1.3,1.3,0,0,0,15.939,3.807ZM10.5,13.817A3.318,3.318,0,1,1,13.817,10.5,3.322,3.322,0,0,1,10.5,13.817Z" transform="translate(14 14)"/>
</svg>
